<svg width="22" height="20" viewBox="0 0 22 20" fill="none" xmlns="http://www.w3.org/2000/svg">
<path d="M20.1712 2.20375L18.3288 0.375L16.5 2.20375L14.6713 0.375L12.8425 2.20375L11 0.375L9.17125 2.20375L7.32875 0.375L5.5 2.20375L3.67125 0.375L1.82875 2.20375L0 0.375V17.5625C0 18.7038 0.92125 19.625 2.0625 19.625H19.9375C21.0788 19.625 22 18.7038 22 17.5625V0.375L20.1712 2.20375ZM19.9375 9.3125H2.0625V5.1875H19.9375V9.3125ZM12.0312 11.375H19.9375V13.4375H12.0312V11.375ZM2.0625 11.375H9.96875V17.5625H2.0625V11.375ZM12.0312 17.5625V15.5H19.9375V17.5625H12.0312Z" fill="#414B5A"/>
</svg>
