<svg width="68" height="58" viewBox="0 0 68 58" fill="none" xmlns="http://www.w3.org/2000/svg">
<path d="M38.4268 19.9997C42.6605 19.9997 46.1021 23.1107 46.1021 26.9377C46.1021 27.9534 45.8074 28.897 45.3714 29.7656C44.2846 29.8239 43.1609 29.971 41.939 30.2873C40.3395 26.5325 37.0145 23.5852 32.8299 22.2254C34.2299 20.8655 36.2132 19.9997 38.4268 19.9997Z" fill="#EFFF8D"/>
<path d="M41.4969 4.7361L38.4268 13.0617L35.3566 4.7361C34.7917 3.20141 35.7066 1.5474 37.4013 1.03676C39.0991 0.523348 40.932 1.35313 41.4969 2.88504C41.7272 3.51224 41.7118 4.15608 41.4969 4.7361Z" fill="#EFFF8D"/>
<path d="M57.9651 13.2004L49.2797 17.1274L53.6239 9.27632C54.4253 7.83044 56.3686 7.24765 57.9651 7.96643C59.5647 8.69075 60.2094 10.4475 59.4142 11.8933C59.0857 12.4817 58.573 12.9257 57.9651 13.2004Z" fill="#EFFF8D"/>
<path d="M62.9879 29.7129L53.7775 26.9377L62.9879 24.1625C64.6856 23.6491 66.5154 24.4789 67.0834 26.0135C67.6483 27.5454 66.7304 29.1995 65.0326 29.7129C64.3418 29.921 63.6295 29.9044 62.9879 29.7129Z" fill="#EFFF8D"/>
<path fill-rule="evenodd" clip-rule="evenodd" d="M51.5547 30.662C51.9814 29.4853 52.2424 28.2448 52.2424 26.9377C52.2424 20.0524 46.0438 14.4493 38.4268 14.4493C34.3128 14.4493 30.6378 16.0978 28.1203 18.6898L27.6813 18.6121C22.2287 18.6121 17.338 20.7767 13.9608 24.193C13.224 23.971 12.5117 23.9543 11.821 24.1625C10.1232 24.6759 9.2052 26.3299 9.7701 27.8618C9.9451 28.3253 10.2552 28.6916 10.6205 29.0024C9.75168 30.9367 9.26046 33.0487 9.26046 35.2633L9.2666 35.6129C3.97061 36.8479 0.0500488 41.1994 0.0500488 46.3641C0.0500488 52.4861 5.56095 57.4648 12.3306 57.4648H46.1021C54.5665 57.4648 61.4528 51.2401 61.4528 43.5889C61.4528 37.6805 57.3265 32.6574 51.5547 30.662ZM38.4268 19.9997C42.6605 19.9997 46.1021 23.1107 46.1021 26.9377C46.1021 27.9534 45.8074 28.897 45.3714 29.7656C44.2846 29.8239 43.1609 29.971 41.939 30.2873C40.3395 26.5325 37.0145 23.5852 32.8299 22.2254C34.2299 20.8655 36.2132 19.9997 38.4268 19.9997ZM46.1021 51.9144H12.3306C8.94117 51.9144 6.19032 49.4251 6.19032 46.3641C6.19032 43.303 8.94117 40.8137 12.0481 40.797L16.4139 40.8414L15.6525 37.5056C15.4836 36.7757 15.4007 36.0181 15.4007 35.2633C15.4007 29.1412 20.9116 24.1625 27.6813 24.1625L27.8931 24.1236C33.7387 24.2763 38.6233 28.0256 39.7039 33.1985L39.8206 33.7147C40.1982 34.9247 41.4079 35.674 42.725 35.6906L43.6122 35.6268C44.5701 35.377 45.3591 35.2633 46.1021 35.2633C51.1801 35.2633 55.3125 38.9987 55.3125 43.5889C55.3125 48.179 51.1801 51.9144 46.1021 51.9144Z" fill="#8DBBFF"/>
<path d="M23.2296 9.27632L27.5738 17.1274L18.8884 13.2004C17.2889 12.4761 16.6411 10.7194 17.4393 9.27632C18.2406 7.83044 20.1871 7.24765 21.7805 7.96643C22.4344 8.26337 22.9256 8.72683 23.2296 9.27632Z" fill="#EFFF8D"/>
</svg>
