<?xml version="1.0" encoding="UTF-8"?>
<!DOCTYPE svg PUBLIC "-//W3C//DTD SVG 1.1//EN" "http://www.w3.org/Graphics/SVG/1.1/DTD/svg11.dtd">
<!-- Creator: CorelDRAW -->
<svg xmlns="http://www.w3.org/2000/svg" xml:space="preserve" width="24.9643mm" height="23.9927mm" version="1.1" style="shape-rendering:geometricPrecision; text-rendering:geometricPrecision; image-rendering:optimizeQuality; fill-rule:evenodd; clip-rule:evenodd"
viewBox="0 0 678.32 651.92"
 xmlns:xlink="http://www.w3.org/1999/xlink"
 xmlns:xodm="http://www.corel.com/coreldraw/odm/2003">
 <defs>
  <style type="text/css">
   <![CDATA[
    .fil0 {fill:white}
   ]]>
  </style>
 </defs>
 <g id="Слой_x0020_1">
  <metadata id="CorelCorpID_0Corel-Layer"/>
  <g id="_105553189206496">
   <path class="fil0" d="M555.11 235.92c0,12.06 3.79,22.55 7.92,30.5 5.69,10.93 13.72,19.01 22.74,26.28l26.5 22.52c4.49,3.57 6.4,5.74 9.08,10.8 -4.68,8.84 -11.67,12.83 -18.88,19.54 -39.5,36.72 -58.22,43.33 -41,111.89 2.13,8.49 6.89,25.34 6.89,34.18 -46.65,10.87 -84.15,-2.29 -112.05,40.31 -11.09,16.93 -20.19,48.81 -29.71,63.03 -3.42,-1.64 -6.34,-2.46 -10.19,-4.38 -4.49,-2.24 -6.05,-3.44 -9.94,-5.96 -44.4,-28.74 -66.43,-39.87 -114.94,-12.12 -7.41,4.24 -32.36,20.82 -38.49,22.45 -11.86,-7.94 -16.19,-50.24 -44.02,-77.86 -21.92,-21.74 -57.95,-18.35 -85.48,-21.84 -3.33,-0.42 -9.64,-1.99 -13.58,-2.32 0,-43.34 31.14,-72 -2.27,-116.97 -10.87,-14.63 -20.33,-19.62 -30.52,-29.1 -6.48,-6.03 -15.53,-12.55 -20.21,-19.54 4.43,-19 66.24,-42.83 66.24,-90.09 0,-35.59 -13.25,-56.47 -13.25,-75.52 0,-9.14 69.31,-0.13 97.05,-24.84 22.39,-19.95 28.99,-52.62 43.38,-79.82 8.53,1.99 14.82,6.38 21.2,10.6 41.67,27.56 67.24,41.85 114.2,13.52 6.77,-4.09 13.28,-8.01 19.61,-12.19 4.64,-3.06 14.79,-10.06 21.2,-10.6 8.29,12.37 12.55,27.23 19.41,41.53 16.01,33.34 26.53,48.32 67.61,54.28 17.25,2.5 38.04,2.32 54.73,6.21 0,19.4 -13.25,47.45 -13.25,75.52zm-488.87 -2.65c0,18.39 -66.24,45.14 -66.24,88.76 0,25.31 6.12,31.23 19.29,48.27 4.76,6.16 17.83,16.03 22.78,20.95 22.13,22.01 28.38,15.02 20.2,47.37 -3.45,13.66 -9.28,34.17 -9.28,50.34 0,46.12 34.26,58.74 70.58,63.23 50.28,6.22 44.76,-4.23 59.63,30.47 7.44,17.35 17.31,44.84 33.28,56.8 23.58,17.66 46.47,15.04 70.59,1.44 3.89,-2.19 6.57,-3.13 10.47,-5.43 40.02,-23.72 36.96,-28.62 62.56,-12.44 28.66,18.12 65.52,43.18 99.1,17.77 18,-13.61 25.29,-34.87 34.09,-54.67 15.24,-34.27 8.66,-30.19 55.1,-33.66 22.05,-1.65 50.67,-6.74 63.7,-25.06 27.5,-38.66 -0.02,-74.63 -0.02,-111.31 0,-6.3 17.48,-18.78 22.83,-23.54l15.27 -13.88c12.21,-10.72 28.14,-29.5 28.14,-47.38 0,-15.35 -0.28,-22.74 -10.04,-37.65 -16.33,-24.95 -56.2,-46.95 -56.2,-57.74 0,-29.21 36.31,-94.99 -15.46,-123.65 -32.47,-17.97 -79.28,-8.82 -90.3,-19.66 -13.11,-12.91 -24.56,-91.19 -75.74,-91.19 -22.12,0 -33.02,6.19 -50.76,16.8 -40.78,24.4 -36.92,27.17 -62.11,11.28 -6.65,-4.2 -13.32,-8 -19.61,-12.18 -49.05,-32.65 -84.62,-17.79 -107.3,33.14 -4.19,9.41 -12.62,31.12 -17.24,38.4 -6.97,10.97 -32.28,10 -45.02,10.63 -60.43,2.95 -84.05,34.88 -71.86,87.71 1.77,7.66 3.61,15.3 5.32,22.51 1.86,7.87 4.25,14.32 4.25,23.57z"/>
   <path class="fil0" d="M300.74 372.38c-22.4,-15 -49.21,-60.94 -74.19,-60.94 -14.77,0 -27.82,12.64 -27.82,29.15 0,13.6 12.22,23.48 19.54,30.8l50.35 50.35c15.02,15.02 16.69,20.87 37.43,20.87 10.43,0 20.18,-13.03 25.58,-19.46 7.2,-8.57 13.63,-15.83 20.6,-24.44 3.4,-4.2 6.77,-7.86 10.37,-12.15l103.58 -124.29c9.05,-11.26 8.11,-11.48 8.11,-25.01 0,-12.92 -26.1,-40.36 -51.99,-10.92 -2.14,2.43 -2.03,2.79 -4.06,5.21l-91.3 108.75c-3.05,3.5 -6.32,7.48 -8.98,10.89 -5.48,7.05 -12.24,13.76 -17.22,21.2z"/>
  </g>
 </g>
</svg>
