<svg width="24" height="20" viewBox="0 0 24 20" fill="none" xmlns="http://www.w3.org/2000/svg">
<path d="M15.75 7.75L16.935 5.17L19.5 4L16.935 2.83L15.75 0.25L14.61 2.83L12 4L14.61 5.17L15.75 7.75Z" fill="#414B5A"/>
<path d="M3 10.75L3.6 8.35L6 7.75L3.6 7.15L3 4.75L2.4 7.15L0 7.75L2.4 8.35L3 10.75Z" fill="#414B5A"/>
<path d="M21.75 4.75C20.145 4.75 18.99 6.43 19.725 7.96L15.21 12.475C14.43 12.1 13.725 12.265 13.275 12.475L11.76 10.96C11.91 10.675 12 10.345 12 10C12 8.755 10.995 7.75 9.75 7.75C8.505 7.75 7.5 8.755 7.5 10C7.5 10.345 7.59 10.675 7.725 10.96L3.21 15.475C2.925 15.34 2.595 15.25 2.25 15.25C1.005 15.25 0 16.255 0 17.5C0 18.745 1.005 19.75 2.25 19.75C3.495 19.75 4.5 18.745 4.5 17.5C4.5 17.155 4.41 16.825 4.275 16.54L8.79 12.025C9.57 12.4 10.275 12.235 10.725 12.025L12.24 13.54C12.09 13.825 12 14.155 12 14.5C12 15.745 13.005 16.75 14.25 16.75C15.495 16.75 16.5 15.745 16.5 14.5C16.5 14.155 16.41 13.825 16.275 13.54L20.79 9.025C22.335 9.775 24 8.59 24 7C24 5.755 22.995 4.75 21.75 4.75Z" fill="#414B5A"/>
</svg>
