<?xml version="1.0" encoding="UTF-8"?>
<!DOCTYPE svg PUBLIC "-//W3C//DTD SVG 1.1//EN" "http://www.w3.org/Graphics/SVG/1.1/DTD/svg11.dtd">
<!-- Creator: CorelDRAW -->
<svg xmlns="http://www.w3.org/2000/svg" xml:space="preserve" width="30px" height="30px" version="1.1" style="shape-rendering:geometricPrecision; text-rendering:geometricPrecision; image-rendering:optimizeQuality; fill-rule:evenodd; clip-rule:evenodd"
viewBox="0 0 1.21 1.21"
 xmlns:xlink="http://www.w3.org/1999/xlink"
 xmlns:xodm="http://www.corel.com/coreldraw/odm/2003">
 <defs>
  <style type="text/css">
   <![CDATA[
    .fil0 {fill:black;fill-rule:nonzero}
   ]]>
  </style>
 </defs>
 <g id="Слой_x0020_1">
  <metadata id="CorelCorpID_0Corel-Layer"/>
  <path class="fil0" d="M0.61 0.96c-0.02,0 -0.03,0 -0.04,0 -0.07,-0.01 -0.13,-0.04 -0.18,-0.09 -0.04,-0.05 -0.07,-0.11 -0.08,-0.18 -0.01,-0.07 0.01,-0.15 0.05,-0.21 0.04,-0.06 0.11,-0.1 0.18,-0.12 0.01,0 0.02,0 0.03,0 0,0.01 0.01,0.01 0.02,0.02 0,0 0,0.01 0,0.02 0,0.01 0,0.02 0,0.03 -0.02,0.03 -0.03,0.07 -0.02,0.12 0,0.03 0.02,0.07 0.05,0.1 0.02,0.02 0.06,0.04 0.1,0.05 0.04,0 0.08,0 0.12,-0.03 0,0 0.01,0 0.02,0 0.01,0 0.02,0 0.02,0.01 0.01,0 0.02,0.01 0.02,0.02 0,0 0,0.01 0,0.02 -0.01,0.07 -0.05,0.13 -0.1,0.17 -0.06,0.05 -0.12,0.07 -0.19,0.07zm-0.08 -0.54c-0.04,0.01 -0.08,0.03 -0.11,0.07 -0.03,0.03 -0.05,0.07 -0.06,0.11 -0.01,0.04 -0.01,0.08 0,0.13 0.02,0.04 0.04,0.08 0.07,0.11 0.03,0.03 0.07,0.05 0.11,0.06 0.04,0.01 0.08,0.01 0.13,0 0.04,-0.01 0.08,-0.03 0.11,-0.06 0.03,-0.03 0.05,-0.07 0.06,-0.11 -0.03,0.02 -0.06,0.02 -0.1,0.02 -0.04,0 -0.07,-0.01 -0.1,-0.02 -0.04,-0.02 -0.06,-0.04 -0.09,-0.07 -0.02,-0.03 -0.03,-0.07 -0.04,-0.1 0,-0.05 0,-0.1 0.02,-0.14zm0.6 0.79l-1.05 0c-0.05,0 -0.08,-0.04 -0.08,-0.08l0 -0.94c0,-0.04 0.03,-0.08 0.08,-0.08l0.3 0 0 -0.07c0,-0.02 0.01,-0.04 0.03,-0.04 0.03,0 0.04,0.02 0.04,0.04l0 0.07 0.3 0 0 -0.07c0,-0.02 0.02,-0.04 0.04,-0.04 0.02,0 0.04,0.02 0.04,0.04l0 0.07 0.3 0c0.04,0 0.08,0.04 0.08,0.08l0 0.94c0,0.04 -0.04,0.08 -0.08,0.08zm-0.3 -1.02l0 0.04c0,0.02 -0.02,0.03 -0.04,0.03 -0.02,0 -0.04,-0.01 -0.04,-0.03l0 -0.04 -0.3 0 0 0.04c0,0.02 -0.01,0.03 -0.04,0.03 -0.02,0 -0.03,-0.01 -0.03,-0.03l0 -0.04 -0.3 0 0 0.94 1.05 0 0 -0.94 -0.3 0z"/>
 </g>
</svg>
