<?xml version="1.0" encoding="UTF-8"?>
<!DOCTYPE svg PUBLIC "-//W3C//DTD SVG 1.1//EN" "http://www.w3.org/Graphics/SVG/1.1/DTD/svg11.dtd">
<!-- Creator: CorelDRAW -->
<svg xmlns="http://www.w3.org/2000/svg" xml:space="preserve" width="1500px" height="1501px" version="1.1" style="shape-rendering:geometricPrecision; text-rendering:geometricPrecision; image-rendering:optimizeQuality; fill-rule:evenodd; clip-rule:evenodd"
viewBox="0 0 1957.39 1958.32"
 xmlns:xlink="http://www.w3.org/1999/xlink"
 xmlns:xodm="http://www.corel.com/coreldraw/odm/2003">
 <defs>
  <style type="text/css">
   <![CDATA[
    .fil0 {fill:black}
   ]]>
  </style>
 </defs>
 <g id="Слой_x0020_1">
  <metadata id="CorelCorpID_0Corel-Layer"/>
  <path class="fil0" d="M526.05 1012.25c54.44,-14.44 17.33,61.55 103.59,84.01 37.37,9.73 75.84,-7.39 75.84,13.86 0,38.06 -23.42,3.12 -72.34,62.23 -41.17,49.74 9.38,104.96 -37.77,104.96 -15.05,0 -12.98,-15.81 -19.19,-29.73 -33.81,-75.78 -116.62,-54.57 -139.84,-59.98 -1.08,-12.63 0.05,-7.71 -4.08,-16.31 21.72,-24.99 58.06,-18.23 82.82,-68.06 21.72,-43.73 2.9,-56.36 10.97,-90.98zm309.92 -505.66c0,32.27 12.59,64.64 24.58,85.53 31.66,55.17 66.58,60.35 89.68,73.43 12.36,7 18.75,23.09 12.81,37.05 -21.26,49.97 -109.1,-41.19 -205.68,51.61 -43.03,41.35 -48.37,109.12 -89.57,75.52 -24.75,-20.18 0.99,-31 0.99,-94.78 0,-44.52 -22.54,-81.95 -45.84,-105.04 -58.29,-57.73 -80.58,-33.24 -80.58,-70.3 0,-47.95 54.19,-20.4 73.4,-20.4 55.33,0 96.38,-4.37 137.74,-45.76 40.07,-40.1 34.41,-80.65 66.16,-80.65 12.2,0 28.54,15.09 28.54,24.47 0,21.31 -12.23,47.91 -12.23,69.32zm371.09 -248.75c30.67,0 88.86,27.97 116.99,42.04l71.92 42.26c10.74,6.6 13.69,9.82 23.95,16.84 47.33,32.39 107.05,86.76 142.53,130.69 220.61,273.11 240.65,626.45 42.63,924.69 -12.74,19.2 -25.77,36.15 -40.37,53.41 -25.6,30.27 -65.62,71.07 -96.63,95.03 -58.99,45.59 -101.85,77.03 -175.43,110.03 -263.4,118.11 -547.15,82.91 -774.37,-85.98 -30.9,-22.97 -14.1,-42.31 -4.47,-56.71 68.52,0 127.97,1.37 187.03,-8.71 141.94,-24.25 261.76,-76.42 370.45,-167.84 10.52,-8.85 16.33,-17.33 26.87,-26.14 67.42,-56.37 128.4,-146.62 167.35,-224.12 59.99,-119.37 80.2,-220.3 80.2,-368.38 0,-105.53 -29.95,-194.98 -60.58,-269.72 -32.46,-79.18 -54.57,-100.37 -92.17,-156.7 -6.24,-9.35 -10.59,-16.72 -8.16,-28.12 2.28,-10.67 11.58,-22.57 22.26,-22.57zm-1207.06 689.16l0 73.41c0,202.91 113.9,480.57 257.89,622.93 11.23,11.1 19.44,19.37 30.62,30.55 167.26,167.26 414.65,284.43 657.56,284.43 170.61,0 311.02,-22.85 447.26,-91.02 191.03,-95.58 321.04,-210 432.28,-395.53 15.72,-26.22 26.76,-49.53 40.76,-77.51 68.31,-136.52 91.02,-276.31 91.02,-447.26 0,-96.28 -25.49,-212.21 -56.57,-298.2 -27.05,-74.83 -73.49,-168.66 -121.71,-233.07 -72.41,-96.72 -77.86,-99.36 -169.32,-185.45 -49.09,-46.21 -160.05,-110.1 -216.46,-138.32 -49.76,-24.9 -116.53,-47.21 -174.01,-62.52 -241.36,-64.26 -526.45,-20.44 -732.77,103.27 -26.4,15.83 -47.17,28.64 -72.27,45.98 -106.99,73.95 -218.65,194.22 -282.53,308.77 -15.04,26.97 -26.56,49.23 -40.73,77.53 -45.08,90.1 -91.02,248.8 -91.02,382.01z"/>
 </g>
</svg>
