<?xml version="1.0" encoding="UTF-8"?>
<!DOCTYPE svg PUBLIC "-//W3C//DTD SVG 1.1//EN" "http://www.w3.org/Graphics/SVG/1.1/DTD/svg11.dtd">
<!-- Creator: CorelDRAW -->
<svg xmlns="http://www.w3.org/2000/svg" xml:space="preserve" width="30px" height="30px" version="1.1" style="shape-rendering:geometricPrecision; text-rendering:geometricPrecision; image-rendering:optimizeQuality; fill-rule:evenodd; clip-rule:evenodd"
viewBox="0 0 460.51 460.51"
 xmlns:xlink="http://www.w3.org/1999/xlink"
 xmlns:xodm="http://www.corel.com/coreldraw/odm/2003">
 <defs>
  <style type="text/css">
   <![CDATA[
    .fil0 {fill:black}
   ]]>
  </style>
 </defs>
 <g id="Слой_x0020_1">
  <metadata id="CorelCorpID_0Corel-Layer"/>
  <g id="_105553364284928">
   <g>
    <g id="Page-1">
     <g id="Dribbble-Light-Preview">
      <g id="icons">
       <path id="calendar-_x005b__x0023_1196_x005d_" class="fil0" d="M414.46 391.43c0,12.71 -10.32,23.03 -23.03,23.03l-322.35 0c-12.71,0 -23.03,-10.32 -23.03,-23.03l0 -230.25c0,-12.71 10.32,-23.03 23.03,-23.03l322.35 0c12.71,0 23.03,10.32 23.03,23.03l0 230.25zm0 -345.38l0 -23.02c0,-12.72 -10.32,-23.03 -23.03,-23.03 -12.71,0 -23.02,10.31 -23.02,23.03l0 23.02 -115.13 0 0 -23.02c0,-12.72 -10.32,-23.03 -23.03,-23.03 -12.71,0 -23.02,10.31 -23.02,23.03l0 23.02 -115.13 0 0 -23.02c0,-12.72 -10.31,-23.03 -23.02,-23.03 -12.71,0 -23.03,10.31 -23.03,23.03l0 23.02c-25.44,0 -46.05,20.61 -46.05,46.05l0 322.36c0,25.42 20.61,46.05 46.05,46.05l368.41 0c25.44,0 46.05,-20.63 46.05,-46.05l0 -322.36c0,-25.44 -20.61,-46.05 -46.05,-46.05l0 0z"/>
      </g>
     </g>
    </g>
   </g>
   <path class="fil0" d="M150.04 278.27c0,-10.62 2.89,-23.75 7.17,-32.93 5.42,-11.63 10.45,-17.67 18.91,-26.04 2.09,-2.07 6.14,-5.02 8.45,-6.77 10.38,-7.86 23.28,-11.88 36.33,-13.81 2.22,-0.32 6.85,-0.67 9.35,-0.67l0 160.44c-15.29,0 -33.87,-5.54 -45.68,-14.49 -19.54,-14.8 -30.04,-30.52 -33.86,-56.38 -0.33,-2.22 -0.67,-6.85 -0.67,-9.35zm75.1 -95.08l10.26 0c6,0.33 12.06,1.24 18.11,2.75 3.19,0.79 5.85,1.64 8.83,2.68 7.57,2.65 16.49,7.3 22.72,11.81 18.65,13.49 32.04,32.27 37.6,54.88 1.55,6.28 2.43,12.68 2.67,19.09l0 7.27c-0.37,9.76 -2.2,19.44 -5.43,28.68 -0.98,2.82 -2.07,5.61 -3.36,8.15 -11.11,22.05 -24.21,35.13 -46.29,46.18 -11.17,5.59 -24.82,8.48 -38.55,8.66l-2.91 0c-13.81,-0.19 -27.54,-3.12 -38.77,-8.78 -22.05,-11.12 -35.13,-24.22 -46.18,-46.3 -6.59,-13.17 -8.66,-27.55 -8.66,-42.59 0,-17.92 6.88,-37.9 17.24,-52.21 17.46,-24.14 44.08,-38.72 72.72,-40.27z"/>
  </g>
 </g>
</svg>
