<?xml version="1.0" encoding="iso-8859-1"?>
<!-- Uploaded to: SVG Repo, www.svgrepo.com, Generator: SVG Repo Mixer Tools -->
<!DOCTYPE svg PUBLIC "-//W3C//DTD SVG 1.1//EN" "http://www.w3.org/Graphics/SVG/1.1/DTD/svg11.dtd">
<svg fill="#000000" version="1.1" id="Capa_1" xmlns="http://www.w3.org/2000/svg" xmlns:xlink="http://www.w3.org/1999/xlink" 
	 width="800px" height="800px" viewBox="0 0 433.542 433.543"
	 xml:space="preserve">
<g>
	<path d="M216.771,0.001C97.054,0.001,0,97.049,0,216.769c0,119.727,97.054,216.773,216.771,216.773
		c119.714,0,216.771-97.058,216.771-216.773C433.542,97.055,336.485,0.001,216.771,0.001z M253.039,399.714
		c-11.734,2.316-23.86,3.551-36.268,3.551c-102.999,0-186.497-83.491-186.497-186.496c0-102.997,83.498-186.494,186.497-186.494
		c12.407,0,24.533,1.239,36.268,3.554C167.395,50.704,102.8,126.182,102.8,216.769C102.8,307.363,167.395,382.84,253.039,399.714z"
		/>
</g>
</svg>