<?xml version="1.0" encoding="UTF-8"?>
<!DOCTYPE svg PUBLIC "-//W3C//DTD SVG 1.1//EN" "http://www.w3.org/Graphics/SVG/1.1/DTD/svg11.dtd">
<!-- Creator: CorelDRAW -->
<svg xmlns="http://www.w3.org/2000/svg" xml:space="preserve" width="30px" height="30px" version="1.1" style="shape-rendering:geometricPrecision; text-rendering:geometricPrecision; image-rendering:optimizeQuality; fill-rule:evenodd; clip-rule:evenodd"
viewBox="0 0 12.94 12.96"
 xmlns:xlink="http://www.w3.org/1999/xlink"
 xmlns:xodm="http://www.corel.com/coreldraw/odm/2003">
 <defs>
  <style type="text/css">
   <![CDATA[
    .fil0 {fill:black;fill-rule:nonzero}
   ]]>
  </style>
 </defs>
 <g id="Слой_x0020_1">
  <metadata id="CorelCorpID_0Corel-Layer"/>
  <path class="fil0" d="M1.88 12.96c-0.01,0 -0.02,0 -0.02,0 -0.22,0 -0.44,-0.01 -0.65,-0.02l-0.1 -0.03c-0.55,-0.15 -0.98,-0.68 -1.08,-1.35l-0.02 -0.11c-0.01,-0.12 -0.01,-0.46 -0.01,-0.76l0 -10.15c0,-0.3 0.2,-0.54 0.45,-0.54l10.06 0c0.24,0 0.44,0.24 0.45,0.54l0 1.76 1.5 0c0.26,0 0.48,0.26 0.48,0.58l0 8.24c0,1.02 -0.68,1.84 -1.52,1.84l-9.54 0zm0 -1.27l8.1 0c-0.05,-0.18 -0.07,-0.37 -0.07,-0.56 0,0 0,0 0,0l0 -2.5c0,-0.04 0,-0.08 0,-0.12l0 -7.24 -8.86 0 0 9.42c0,0.25 0,0.49 0,0.62l0.01 0.01c0.03,0.18 0.14,0.32 0.28,0.36l0.01 0c0.13,0 0.34,0.01 0.53,0.01l0 0zm6.87 -8.41l-6.58 0 0 1.27 6.58 0 0 -1.27zm-3.79 2.73l-2.79 0 0 4.05 2.79 0 0 -4.05zm3.79 0.03l-2.72 0 0 1.27 2.72 0 0 -1.27zm0 2.76l-2.72 0 0 1.27 2.72 0 0 -1.27zm2.21 -5.23l0 7.56c0,0.31 0.21,0.56 0.46,0.56 0.26,0 0.47,-0.25 0.47,-0.56l0 -7.56 -0.93 0z"/>
 </g>
</svg>
