<?xml version="1.0" encoding="UTF-8"?>
<!DOCTYPE svg PUBLIC "-//W3C//DTD SVG 1.1//EN" "http://www.w3.org/Graphics/SVG/1.1/DTD/svg11.dtd">
<!-- Creator: CorelDRAW -->
<svg xmlns="http://www.w3.org/2000/svg" xml:space="preserve" width="30px" height="25px" version="1.1" style="shape-rendering:geometricPrecision; text-rendering:geometricPrecision; image-rendering:optimizeQuality; fill-rule:evenodd; clip-rule:evenodd"
viewBox="0 0 1.38 1.15"
 xmlns:xlink="http://www.w3.org/1999/xlink"
 xmlns:xodm="http://www.corel.com/coreldraw/odm/2003">
 <defs>
  <style type="text/css">
   <![CDATA[
    .fil0 {fill:#212121;fill-rule:nonzero}
   ]]>
  </style>
 </defs>
 <g id="Слой_x0020_1">
  <metadata id="CorelCorpID_0Corel-Layer"/>
  <g id="_105553367252352">
   <g id="__xd83d__xdd0d_-Product-Icons">
    <g id="ic_fluent_news_28_regular">
     <path id="__xd83c__xdfa8_-Color" class="fil0" d="M1.19 1.15l-1 0c-0.1,0 -0.18,-0.08 -0.19,-0.18l0 -0.01 0 -0.83c0,-0.07 0.05,-0.13 0.12,-0.13l0.01 0 0.89 0c0.07,0 0.12,0.05 0.13,0.12l0 0.01 0 0.04 0.1 0c0.07,0 0.12,0.06 0.13,0.12l0 0.01 0 0.66c0,0.1 -0.08,0.18 -0.18,0.19l-0.01 0 -1 0 1 0zm-1 -0.09l1 0c0.05,0 0.1,-0.04 0.1,-0.09l0 -0.01 0 -0.66c0,-0.02 -0.01,-0.04 -0.03,-0.04l-0.01 0 -0.1 0 0 0.62c0,0.02 -0.02,0.04 -0.04,0.04l0 0c-0.03,0 -0.04,-0.02 -0.05,-0.04l0 0 0 -0.75c0,-0.02 -0.01,-0.04 -0.03,-0.04l-0.01 0 -0.89 0c-0.02,0 -0.04,0.01 -0.04,0.03l0 0.01 0 0.83c0,0.05 0.04,0.1 0.09,0.1l0.01 0 1 0 -1 0zm0.28 -0.54c0.04,0 0.08,0.03 0.08,0.07l0 0.2c0,0.04 -0.04,0.07 -0.08,0.07l-0.2 0c-0.04,0 -0.07,-0.03 -0.07,-0.07l0 -0.2c0,-0.04 0.03,-0.07 0.07,-0.07l0.2 0zm0.23 0.26l0.2 0c0.03,0 0.05,0.01 0.05,0.04 0,0.02 -0.02,0.04 -0.04,0.04l-0.01 0 -0.2 0c-0.02,0 -0.04,-0.02 -0.04,-0.04 0,-0.02 0.02,-0.04 0.04,-0.04l0 0 0.2 0 -0.2 0zm-0.24 -0.18l-0.17 0 0 0.18 0.17 0 0 -0.18zm0.24 -0.08l0.2 0c0.03,0 0.05,0.02 0.05,0.04 0,0.02 -0.02,0.04 -0.04,0.04l-0.01 0 -0.2 0c-0.02,0 -0.04,-0.02 -0.04,-0.04 0,-0.02 0.02,-0.04 0.04,-0.04l0 0 0.2 0 -0.2 0zm-0.46 -0.26l0.66 0c0.03,0 0.05,0.02 0.05,0.04 0,0.02 -0.02,0.04 -0.04,0.04l-0.01 0 -0.66 0c-0.02,0 -0.04,-0.01 -0.04,-0.04 0,-0.02 0.02,-0.04 0.04,-0.04l0 0 0.66 0 -0.66 0z"/>
    </g>
   </g>
  </g>
 </g>
</svg>
