<?xml version="1.0" encoding="UTF-8"?>
<!DOCTYPE svg PUBLIC "-//W3C//DTD SVG 1.1//EN" "http://www.w3.org/Graphics/SVG/1.1/DTD/svg11.dtd">
<!-- Creator: CorelDRAW -->
<svg xmlns="http://www.w3.org/2000/svg" xml:space="preserve" width="30px" height="30px" version="1.1" style="shape-rendering:geometricPrecision; text-rendering:geometricPrecision; image-rendering:optimizeQuality; fill-rule:evenodd; clip-rule:evenodd"
viewBox="0 0 1.35 1.37"
 xmlns:xlink="http://www.w3.org/1999/xlink"
 xmlns:xodm="http://www.corel.com/coreldraw/odm/2003">
 <defs>
  <style type="text/css">
   <![CDATA[
    .fil1 {fill:black}
    .fil0 {fill:#2B2B2A;fill-rule:nonzero}
   ]]>
  </style>
 </defs>
 <g id="Слой_x0020_1">
  <metadata id="CorelCorpID_0Corel-Layer"/>
  <path class="fil0" d="M0.27 0.95c-0.15,0 -0.27,-0.12 -0.27,-0.27 0,-0.13 0.09,-0.24 0.2,-0.27l0 0c0,-0.23 0.19,-0.41 0.41,-0.41 0.17,0 0.33,0.11 0.38,0.27 0.2,-0.01 0.36,0.14 0.36,0.34 0,0.15 -0.1,0.28 -0.24,0.33 -0.04,0 -0.08,-0.02 -0.09,-0.05 -0.01,-0.04 0.04,-0.05 0.08,-0.06 0.09,-0.03 0.15,-0.12 0.15,-0.22 0,-0.11 -0.08,-0.23 -0.19,-0.23 -0.02,0 -0.06,0 -0.08,0l-0.06 0.01 -0.01 -0.04 -0.02 -0.06c-0.03,-0.11 -0.15,-0.19 -0.28,-0.19 -0.15,0 -0.32,0.12 -0.32,0.27 0,0.01 0.01,0.04 0.01,0.06l0.02 0.06 -0.07 0.01c-0.07,0 -0.15,0.09 -0.15,0.17 0,0.07 0.06,0.16 0.13,0.17 0.09,0.04 0.1,0.02 0.11,0.04 0.01,0.04 -0.03,0.07 -0.07,0.07z"/>
  <path class="fil1" d="M0.25 1.27c0,-0.01 0.04,-0.07 0.05,-0.09l0.25 -0.42c0.02,-0.03 0.05,-0.08 0.06,-0.11l0.05 -0.07c0.01,-0.02 0,-0.02 0.02,-0.02 0.01,0 0.01,0.01 0.02,0.03l0.26 0.44c0.01,0.02 0.19,0.26 0.12,0.26l-0.77 0c-0.03,0 -0.06,0 -0.06,-0.02zm-0.09 0c0,0.03 0.01,0.05 0.03,0.07 0.01,0.01 0.03,0.03 0.06,0.03l0.86 0c0.04,0 0.08,-0.04 0.08,-0.1 0,-0.03 -0.03,-0.08 -0.05,-0.11l-0.36 -0.6c-0.01,-0.02 -0.02,-0.04 -0.04,-0.05 -0.03,-0.04 -0.09,-0.04 -0.13,0 -0.01,0.01 -0.02,0.03 -0.03,0.05 -0.02,0.03 -0.04,0.06 -0.06,0.1l-0.33 0.55c-0.01,0.02 -0.03,0.03 -0.03,0.06z"/>
  <path class="fil1" d="M0.67 1.08c0.05,0 0.05,-0.03 0.05,-0.09l0 -0.08c0,0 0,-0.01 0,-0.02 0,-0.01 0,-0.01 0,-0.02 0,-0.02 0,-0.04 0,-0.05 0.01,-0.02 0,-0.03 0,-0.04 -0.02,-0.03 -0.1,-0.03 -0.09,0.04 0.01,0.01 0,0.03 0,0.04l0.01 0.07c0,0.01 0,0.02 0,0.03 0,0.01 0,0.01 0,0.02 0,0.03 0,0.06 0,0.08 0.01,0.01 0.02,0.02 0.03,0.02z"/>
  <path class="fil1" d="M0.68 1.22c0.03,0 0.05,-0.02 0.05,-0.06 0,-0.05 -0.09,-0.06 -0.1,0.01 0,0.02 0.02,0.05 0.05,0.05z"/>
 </g>
</svg>
