<?xml version="1.0" encoding="UTF-8"?>
<!DOCTYPE svg PUBLIC "-//W3C//DTD SVG 1.1//EN" "http://www.w3.org/Graphics/SVG/1.1/DTD/svg11.dtd">
<!-- Creator: CorelDRAW -->
<svg xmlns="http://www.w3.org/2000/svg" xml:space="preserve" width="354px" height="354px" version="1.1" style="shape-rendering:geometricPrecision; text-rendering:geometricPrecision; image-rendering:optimizeQuality; fill-rule:evenodd; clip-rule:evenodd"
viewBox="0 0 294.1 294.1"
 xmlns:xlink="http://www.w3.org/1999/xlink"
 xmlns:xodm="http://www.corel.com/coreldraw/odm/2003">
 <defs>
  <style type="text/css">
   <![CDATA[
    .fil0 {fill:none}
    .fil2 {fill:black}
    .fil1 {fill:#2B2B2A;fill-rule:nonzero}
   ]]>
  </style>
 </defs>
 <g id="Слой_x0020_1">
  <metadata id="CorelCorpID_0Corel-Layer"/>
  <g id="_105553287222176">
   <rect class="fil0" width="294.1" height="294.1"/>
   <path class="fil1" d="M61.2 203.71c-31.91,0 -57.85,-25.95 -57.85,-57.84 0,-26.92 18.47,-49.59 43.4,-56.03l-0.01 -1.82c0,-47.85 38.91,-86.77 86.76,-86.77 37.41,0 69.76,23.7 81.71,58.07 42.45,-3.54 77.36,30.55 77.36,72.08 0,32.41 -21.79,61.07 -53.01,69.69 -7.74,2.11 -15.67,-2.4 -17.79,-10.08 -2.13,-7.7 8.67,-11.26 16.38,-13.38 18.72,-5.18 33.04,-25.52 33.04,-44.97 0,-23.92 -18.23,-51.25 -42.15,-51.25 -3.5,0 -12.23,0.48 -16.74,1.76l-12.27 2.44 -2.38 -9.12 -3.66 -13.28c-6.93,-24.4 -32.66,-40.67 -60.89,-40.67 -31.9,0 -66.92,25.09 -66.92,56.99 0,3.94 0.31,9.48 1.11,13.29l3.88 14.12 -14.56 1.52c-14.62,0.09 -31.96,19.91 -31.96,35.87 0,15.95 13.49,34.43 27.98,37.35 19.39,7.05 20.95,4.13 23.03,7.56 1.57,8.22 -6.48,14.47 -14.46,14.47z"/>
   <path class="fil2" d="M57.06 272.77c0,-2.87 9.17,-16.11 11.13,-19.39l53.32 -89.85c3.94,-6.53 9.3,-16.38 13.24,-22.91l8.9 -15.5c2.12,-3.61 0.78,-3.27 4.53,-3.27 3.21,0 2.79,1.48 5.06,5.25l55.55 95.02c2.78,4.61 40.56,55.06 26.3,55.06l-166.39 0.39c-4.46,0 -11.64,-0.32 -11.64,-4.8zm-18.5 -0.07c0,6.28 1.68,10.91 5.46,14.7 2.74,2.76 7.29,5.89 12.55,5.89l183.59 0c9.34,0 18.02,-8.65 18.02,-20.59 0,-7.02 -7.12,-16.47 -11.13,-23.19l-77.91 -129.27c-2.05,-3.41 -4.22,-7.64 -6.92,-10.23 -7.61,-7.3 -19.69,-7.37 -27.48,-0.21 -2.74,2.52 -5.01,6.87 -6.98,10.17 -4.34,7.25 -8.65,14.28 -13.09,21.66l-71.31 118.28c-2.09,3.47 -4.8,7.43 -4.8,12.79z"/>
   <path class="fil2" d="M147.08 231.52c11.2,0 9.48,-5.82 9.43,-19.31l0.88 -15.42c0.05,-1.69 -0.08,-3.48 -0.03,-5.17 0.07,-2.2 0.46,-2.64 0.46,-5.12 0,-3.46 -0.34,-7.21 0.17,-10.56 0.53,-3.52 0.28,-6.7 -1.27,-8.96 -4,-5.84 -20.32,-6.26 -18.04,8.6 0.5,3.23 0.26,7.04 0.24,10.49l0.88 14.98c0.06,1.84 -0.08,3.77 -0.02,5.61 0.06,2.16 0.43,2.37 0.46,4.69 0.05,4.83 -0.29,11.41 0.51,15.78 0.46,2.51 3.21,4.39 6.33,4.39z"/>
   <path class="fil2" d="M147.94 261.12c6.75,0 10.72,-4.35 10.72,-11.15 0,-11.02 -19.33,-13.96 -20.4,0.57 -0.4,5.33 4.44,10.58 9.68,10.58z"/>
  </g>
 </g>
</svg>
