<?xml version="1.0" encoding="UTF-8"?>
<!DOCTYPE svg PUBLIC "-//W3C//DTD SVG 1.1//EN" "http://www.w3.org/Graphics/SVG/1.1/DTD/svg11.dtd">
<!-- Creator: CorelDRAW -->
<svg xmlns="http://www.w3.org/2000/svg" xml:space="preserve" width="30px" height="27px" version="1.1" style="shape-rendering:geometricPrecision; text-rendering:geometricPrecision; image-rendering:optimizeQuality; fill-rule:evenodd; clip-rule:evenodd"
viewBox="0 0 1.07 0.96"
 xmlns:xlink="http://www.w3.org/1999/xlink"
 xmlns:xodm="http://www.corel.com/coreldraw/odm/2003">
 <defs>
  <style type="text/css">
   <![CDATA[
    .fil0 {fill:black;fill-rule:nonzero}
   ]]>
  </style>
 </defs>
 <g id="Слой_x0020_1">
  <metadata id="CorelCorpID_0Corel-Layer"/>
  <g id="_105553364825696">
   <g id="Base" display="none">
   </g>
   <g id="Dibujo">
    <g>
     <path class="fil0" d="M0.87 0.22c-0.01,0 -0.02,0 -0.04,0 -0.03,-0.13 -0.15,-0.22 -0.3,-0.22 -0.14,0 -0.26,0.09 -0.3,0.22 -0.01,0 -0.02,0 -0.03,0 -0.11,0 -0.2,0.09 -0.2,0.2 0,0.12 0.09,0.21 0.2,0.21 0.02,0 0.04,-0.02 0.04,-0.04 0,-0.02 -0.02,-0.04 -0.04,-0.04 -0.07,0 -0.13,-0.06 -0.13,-0.13 0,-0.07 0.06,-0.13 0.13,-0.13 0.01,0 0.02,0.01 0.02,0.01l0 0.03c0,0.02 0.02,0.04 0.04,0.04 0.02,0 0.04,-0.02 0.04,-0.04l0 -0.06c0.02,-0.11 0.12,-0.2 0.23,-0.2 0.12,0 0.22,0.09 0.24,0.2l0 0.06c0,0.02 0.02,0.04 0.04,0.04 0.02,0 0.03,-0.02 0.03,-0.04l0 -0.03c0.01,0 0.02,-0.01 0.03,-0.01 0.07,0 0.12,0.06 0.12,0.13 0,0.07 -0.05,0.13 -0.12,0.13 -0.02,0 -0.04,0.02 -0.04,0.04 0,0.02 0.02,0.04 0.04,0.04 0.11,0 0.2,-0.09 0.2,-0.21 0,-0.11 -0.09,-0.2 -0.2,-0.2z"/>
     <path class="fil0" d="M0.56 0.44c-0.02,0 -0.04,0.01 -0.04,0.03l-0.11 0.44c-0.01,0.02 0,0.04 0.02,0.05 0.01,0 0.01,0 0.01,0 0.02,0 0.03,-0.01 0.04,-0.03l0.11 -0.44c0,-0.02 -0.01,-0.04 -0.03,-0.05z"/>
     <path class="fil0" d="M0.71 0.55c-0.02,0 -0.04,0.01 -0.05,0.03l-0.05 0.22c-0.01,0.02 0.01,0.04 0.03,0.05 0,0 0,0 0,0 0.02,0 0.04,-0.01 0.04,-0.03l0.06 -0.22c0,-0.02 -0.01,-0.04 -0.03,-0.05z"/>
     <path class="fil0" d="M0.36 0.55c-0.02,0 -0.04,0.01 -0.05,0.03l-0.05 0.22c-0.01,0.02 0.01,0.04 0.03,0.05 0,0 0,0 0,0 0.02,0 0.04,-0.01 0.04,-0.03l0.06 -0.22c0,-0.02 -0.01,-0.04 -0.03,-0.05z"/>
    </g>
   </g>
  </g>
 </g>
</svg>
