<?xml version="1.0" encoding="UTF-8"?>
<!DOCTYPE svg PUBLIC "-//W3C//DTD SVG 1.1//EN" "http://www.w3.org/Graphics/SVG/1.1/DTD/svg11.dtd">
<!-- Creator: CorelDRAW -->
<svg xmlns="http://www.w3.org/2000/svg" xml:space="preserve" width="30px" height="30px" version="1.1" style="shape-rendering:geometricPrecision; text-rendering:geometricPrecision; image-rendering:optimizeQuality; fill-rule:evenodd; clip-rule:evenodd"
viewBox="0 0 1.77 1.78"
 xmlns:xlink="http://www.w3.org/1999/xlink"
 xmlns:xodm="http://www.corel.com/coreldraw/odm/2003">
 <defs>
  <style type="text/css">
   <![CDATA[
    .fil0 {fill:black;fill-rule:nonzero}
   ]]>
  </style>
 </defs>
 <g id="Слой_x0020_1">
  <metadata id="CorelCorpID_0Corel-Layer"/>
  <g id="_105553363874240">
   <g>
    <path class="fil0" d="M1.09 0.12l-0.08 0.26 -0.08 -0.26c-0.02,-0.05 0.01,-0.1 0.05,-0.12 0.05,-0.01 0.1,0.01 0.11,0.06 0.01,0.02 0.01,0.04 0,0.06l0 0zm0.43 0.27l-0.23 0.12 0.12 -0.25c0.02,-0.04 0.07,-0.06 0.11,-0.04 0.05,0.03 0.06,0.08 0.04,0.13 -0.01,0.01 -0.02,0.03 -0.04,0.04zm0.14 0.52l-0.25 -0.09 0.25 -0.09c0.04,-0.01 0.09,0.01 0.1,0.06 0.02,0.05 -0.01,0.1 -0.05,0.12 -0.02,0 -0.04,0 -0.05,0l0 0zm-1.05 -0.65l0.11 0.25 -0.22 -0.12c-0.05,-0.03 -0.06,-0.08 -0.04,-0.13 0.02,-0.04 0.07,-0.06 0.11,-0.04 0.02,0.01 0.03,0.03 0.04,0.04zm0.74 0.68c0.02,-0.04 0.02,-0.08 0.02,-0.12 0,-0.22 -0.16,-0.39 -0.36,-0.39 -0.11,0 -0.21,0.05 -0.27,0.13l-0.01 0c-0.15,0 -0.28,0.07 -0.36,0.17 -0.02,0 -0.04,0 -0.06,0 -0.05,0.02 -0.07,0.07 -0.05,0.12 0,0.01 0.01,0.02 0.02,0.03 -0.02,0.06 -0.04,0.13 -0.04,0.2l0 0.01c-0.14,0.04 -0.24,0.18 -0.24,0.34 0,0.19 0.14,0.35 0.32,0.35l0.89 0c0.22,0 0.4,-0.2 0.4,-0.44 0,-0.18 -0.1,-0.34 -0.26,-0.4l0 0zm-0.34 -0.34c0.11,0 0.2,0.1 0.2,0.22 0,0.03 -0.01,0.06 -0.02,0.09 -0.03,0 -0.06,0 -0.09,0.01 -0.04,-0.11 -0.13,-0.21 -0.24,-0.25 0.04,-0.04 0.09,-0.07 0.15,-0.07zm0.2 1l-0.89 0c-0.09,0 -0.16,-0.07 -0.16,-0.17 0,-0.1 0.07,-0.17 0.16,-0.18l0.11 0.01 -0.02 -0.11c0,-0.02 -0.01,-0.05 -0.01,-0.07 0,-0.19 0.15,-0.35 0.33,-0.35l0 0c0.16,0.01 0.28,0.12 0.31,0.29l0.01 0.01c0.01,0.04 0.04,0.06 0.07,0.06l0.03 0c0.02,-0.01 0.04,-0.01 0.06,-0.01 0.13,0 0.24,0.12 0.24,0.26 0,0.15 -0.11,0.26 -0.24,0.26l0 0z"/>
   </g>
  </g>
 </g>
</svg>
